{
	"asset":{
		"generator":"Khronos glTF Blender I/O v4.0.44",
		"version":"2.0"
	},
	"scene":0,
	"scenes":[
		{
			"name":"Scene",
			"nodes":[
				0,
				1,
				2,
				3,
				4,
				5,
				6,
				7,
				8,
				9,
				10,
				11,
				12,
				13,
				14,
				15,
				16
			]
		}
	],
	"nodes":[
		{
			"mesh":0,
			"name":"Plane",
			"scale":[
				5,
				5,
				5
			]
		},
		{
			"mesh":1,
			"name":"TrisetumFlavescens_s58ic_Small_lod1_OL.001"
		},
		{
			"mesh":2,
			"name":"TrisetumFlavescens_s58ic_Small_lod1_OL.002"
		},
		{
			"mesh":3,
			"name":"TrisetumFlavescens_s58ic_Small_lod1_OL.003"
		},
		{
			"mesh":4,
			"name":"TrisetumFlavescens_s58ic_Small_lod1_OL"
		},
		{
			"mesh":5,
			"name":"TrisetumFlavescens_s58ic_Dead_lod1_OL.001"
		},
		{
			"mesh":6,
			"name":"TrisetumFlavescens_s58ic_Dead_lod1_OL"
		},
		{
			"mesh":7,
			"name":"TrisetumFlavescens_s58ic_Big_lod1_OL.001"
		},
		{
			"mesh":8,
			"name":"TrisetumFlavescens_s58ic_Big_lod1_OL.002"
		},
		{
			"mesh":9,
			"name":"TrisetumFlavescens_s58ic_Big_lod1_OL.003"
		},
		{
			"mesh":10,
			"name":"TrisetumFlavescens_s58ic_Big_lod1_OL.004"
		},
		{
			"mesh":11,
			"name":"TrisetumFlavescens_s58ic_Big_lod1_OL.005"
		},
		{
			"mesh":12,
			"name":"TrisetumFlavescens_s58ic_Big_lod1_OL.006"
		},
		{
			"mesh":13,
			"name":"TrisetumFlavescens_s58ic_Big_lod1_OL"
		},
		{
			"name":"Yellow Oatgrass Small LOD1"
		},
		{
			"name":"Yellow Oatgrass Dead LOD1"
		},
		{
			"name":"Yellow Oatgrass Big LOD1"
		}
	],
	"materials":[
		{
			"doubleSided":true,
			"name":"Material.001",
			"pbrMetallicRoughness":{
				"baseColorTexture":{
					"index":0
				},
				"metallicFactor":0,
				"roughnessFactor":0.5
			}
		},
		{
			"alphaCutoff":0.5,
			"alphaMode":"MASK",
			"doubleSided":true,
			"name":"mat_plant",
			"normalTexture":{
				"index":1
			},
			"pbrMetallicRoughness":{
				"baseColorTexture":{
					"index":2
				},
				"metallicFactor":0,
				"metallicRoughnessTexture":{
					"index":3
				}
			}
		}
	],
	"meshes":[
		{
			"name":"Plane",
			"primitives":[
				{
					"attributes":{
						"POSITION":0,
						"NORMAL":1,
						"TEXCOORD_0":2
					},
					"indices":3,
					"material":0
				}
			]
		},
		{
			"name":"lod1.001",
			"primitives":[
				{
					"attributes":{
						"POSITION":4,
						"NORMAL":5,
						"TEXCOORD_0":6
					},
					"indices":7,
					"material":1
				}
			]
		},
		{
			"name":"lod1.003",
			"primitives":[
				{
					"attributes":{
						"POSITION":8,
						"NORMAL":9,
						"TEXCOORD_0":10
					},
					"indices":11,
					"material":1
				}
			]
		},
		{
			"name":"lod1.004",
			"primitives":[
				{
					"attributes":{
						"POSITION":12,
						"NORMAL":13,
						"TEXCOORD_0":14
					},
					"indices":15,
					"material":1
				}
			]
		},
		{
			"name":"lod1.010",
			"primitives":[
				{
					"attributes":{
						"POSITION":16,
						"NORMAL":17,
						"TEXCOORD_0":18
					},
					"indices":19,
					"material":1
				}
			]
		},
		{
			"name":"lod1.007",
			"primitives":[
				{
					"attributes":{
						"POSITION":20,
						"NORMAL":21,
						"TEXCOORD_0":22
					},
					"indices":23,
					"material":1
				}
			]
		},
		{
			"name":"lod1.008",
			"primitives":[
				{
					"attributes":{
						"POSITION":24,
						"NORMAL":25,
						"TEXCOORD_0":26
					},
					"indices":27,
					"material":1
				}
			]
		},
		{
			"name":"lod1",
			"primitives":[
				{
					"attributes":{
						"POSITION":28,
						"NORMAL":29,
						"TEXCOORD_0":30
					},
					"indices":31,
					"material":1
				}
			]
		},
		{
			"name":"lod1.002",
			"primitives":[
				{
					"attributes":{
						"POSITION":32,
						"NORMAL":33,
						"TEXCOORD_0":34
					},
					"indices":35,
					"material":1
				}
			]
		},
		{
			"name":"lod1.005",
			"primitives":[
				{
					"attributes":{
						"POSITION":36,
						"NORMAL":37,
						"TEXCOORD_0":38
					},
					"indices":39,
					"material":1
				}
			]
		},
		{
			"name":"lod1.006",
			"primitives":[
				{
					"attributes":{
						"POSITION":40,
						"NORMAL":41,
						"TEXCOORD_0":42
					},
					"indices":43,
					"material":1
				}
			]
		},
		{
			"name":"lod1.009",
			"primitives":[
				{
					"attributes":{
						"POSITION":44,
						"NORMAL":45,
						"TEXCOORD_0":46
					},
					"indices":47,
					"material":1
				}
			]
		},
		{
			"name":"lod1.011",
			"primitives":[
				{
					"attributes":{
						"POSITION":48,
						"NORMAL":49,
						"TEXCOORD_0":50
					},
					"indices":51,
					"material":1
				}
			]
		},
		{
			"name":"lod1.012",
			"primitives":[
				{
					"attributes":{
						"POSITION":52,
						"NORMAL":53,
						"TEXCOORD_0":54
					},
					"indices":55,
					"material":1
				}
			]
		}
	],
	"textures":[
		{
			"sampler":0,
			"source":0
		},
		{
			"sampler":0,
			"source":1
		},
		{
			"sampler":0,
			"source":2
		},
		{
			"sampler":0,
			"source":3
		}
	],
	"images":[
		{
			"mimeType":"image/jpeg",
			"name":"7_moss texture-seamless",
			"uri":"7_moss%20texture-seamless.jpg"
		},
		{
			"mimeType":"image/png",
			"name":"TrisetumFlavescens_s58ic_NormalOpenGL_8bit_16384ppm",
			"uri":"TrisetumFlavescens_s58ic_NormalOpenGL_8bit_16384ppm.png"
		},
		{
			"mimeType":"image/png",
			"name":"TrisetumFlavescens_s58ic_Albedo_8bit_16384ppm",
			"uri":"TrisetumFlavescens_s58ic_Albedo_8bit_16384ppm.png"
		},
		{
			"mimeType":"image/png",
			"name":"TrisetumFlavescens_s58ic_Roughness_8bit_16384ppm",
			"uri":"TrisetumFlavescens_s58ic_Roughness_8bit_16384ppm.png"
		}
	],
	"accessors":[
		{
			"bufferView":0,
			"componentType":5126,
			"count":927628,
			"max":[
				1.028295874595642,
				0.21272972226142883,
				1.0045905113220215
			],
			"min":[
				-1.0070947408676147,
				0,
				-1.015762209892273
			],
			"type":"VEC3"
		},
		{
			"bufferView":1,
			"componentType":5126,
			"count":927628,
			"type":"VEC3"
		},
		{
			"bufferView":2,
			"componentType":5126,
			"count":927628,
			"type":"VEC2"
		},
		{
			"bufferView":3,
			"componentType":5125,
			"count":1572864,
			"type":"SCALAR"
		},
		{
			"bufferView":4,
			"componentType":5126,
			"count":4964,
			"max":[
				0.18362998962402344,
				0.26198241114616394,
				0.21510319411754608
			],
			"min":[
				-0.15281200408935547,
				-0.004081632476300001,
				-0.12468071281909943
			],
			"type":"VEC3"
		},
		{
			"bufferView":5,
			"componentType":5126,
			"count":4964,
			"type":"VEC3"
		},
		{
			"bufferView":6,
			"componentType":5126,
			"count":4964,
			"type":"VEC2"
		},
		{
			"bufferView":7,
			"componentType":5123,
			"count":18750,
			"type":"SCALAR"
		},
		{
			"bufferView":8,
			"componentType":5126,
			"count":10879,
			"max":[
				0.2989826202392578,
				0.24213393032550812,
				0.21399134397506714
			],
			"min":[
				-0.19180536270141602,
				-0.0036643450148403645,
				-0.24258702993392944
			],
			"type":"VEC3"
		},
		{
			"bufferView":9,
			"componentType":5126,
			"count":10879,
			"type":"VEC3"
		},
		{
			"bufferView":10,
			"componentType":5126,
			"count":10879,
			"type":"VEC2"
		},
		{
			"bufferView":11,
			"componentType":5123,
			"count":43413,
			"type":"SCALAR"
		},
		{
			"bufferView":12,
			"componentType":5126,
			"count":7775,
			"max":[
				0.21583271026611328,
				0.18641671538352966,
				0.19641157984733582
			],
			"min":[
				-0.22325372695922852,
				-0.004632104653865099,
				-0.19959592819213867
			],
			"type":"VEC3"
		},
		{
			"bufferView":13,
			"componentType":5126,
			"count":7775,
			"type":"VEC3"
		},
		{
			"bufferView":14,
			"componentType":5126,
			"count":7775,
			"type":"VEC2"
		},
		{
			"bufferView":15,
			"componentType":5123,
			"count":30099,
			"type":"SCALAR"
		},
		{
			"bufferView":16,
			"componentType":5126,
			"count":8770,
			"max":[
				0.21603107452392578,
				0.13142217695713043,
				0.06622155010700226
			],
			"min":[
				-0.3845243453979492,
				-0.007499238941818476,
				-0.344942182302475
			],
			"type":"VEC3"
		},
		{
			"bufferView":17,
			"componentType":5126,
			"count":8770,
			"type":"VEC3"
		},
		{
			"bufferView":18,
			"componentType":5126,
			"count":8770,
			"type":"VEC2"
		},
		{
			"bufferView":19,
			"componentType":5123,
			"count":35715,
			"type":"SCALAR"
		},
		{
			"bufferView":20,
			"componentType":5126,
			"count":4348,
			"max":[
				0.09975767135620117,
				0.031765416264534,
				0.09511417150497437
			],
			"min":[
				-0.07001066207885742,
				-0.01407351903617382,
				-0.09411323070526123
			],
			"type":"VEC3"
		},
		{
			"bufferView":21,
			"componentType":5126,
			"count":4348,
			"type":"VEC3"
		},
		{
			"bufferView":22,
			"componentType":5126,
			"count":4348,
			"type":"VEC2"
		},
		{
			"bufferView":23,
			"componentType":5123,
			"count":15948,
			"type":"SCALAR"
		},
		{
			"bufferView":24,
			"componentType":5126,
			"count":4550,
			"max":[
				0.12933349609375,
				0.06218764930963516,
				0.10897314548492432
			],
			"min":[
				-0.07065773010253906,
				-0.0017316426383331418,
				-0.09976044297218323
			],
			"type":"VEC3"
		},
		{
			"bufferView":25,
			"componentType":5126,
			"count":4550,
			"type":"VEC3"
		},
		{
			"bufferView":26,
			"componentType":5126,
			"count":4550,
			"type":"VEC2"
		},
		{
			"bufferView":27,
			"componentType":5123,
			"count":16683,
			"type":"SCALAR"
		},
		{
			"bufferView":28,
			"componentType":5126,
			"count":14017,
			"max":[
				0.5012643337249756,
				0.2455180287361145,
				0.270420104265213
			],
			"min":[
				-0.2934800386428833,
				-0.0053965565748512745,
				-0.3765433728694916
			],
			"type":"VEC3"
		},
		{
			"bufferView":29,
			"componentType":5126,
			"count":14017,
			"type":"VEC3"
		},
		{
			"bufferView":30,
			"componentType":5126,
			"count":14017,
			"type":"VEC2"
		},
		{
			"bufferView":31,
			"componentType":5123,
			"count":55662,
			"type":"SCALAR"
		},
		{
			"bufferView":32,
			"componentType":5126,
			"count":13463,
			"max":[
				0.31722354888916016,
				0.19906136393547058,
				0.2538658082485199
			],
			"min":[
				-0.23396921157836914,
				-0.0075448788702487946,
				-0.2815960943698883
			],
			"type":"VEC3"
		},
		{
			"bufferView":33,
			"componentType":5126,
			"count":13463,
			"type":"VEC3"
		},
		{
			"bufferView":34,
			"componentType":5126,
			"count":13463,
			"type":"VEC2"
		},
		{
			"bufferView":35,
			"componentType":5123,
			"count":54639,
			"type":"SCALAR"
		},
		{
			"bufferView":36,
			"componentType":5126,
			"count":18319,
			"max":[
				0.40368223190307617,
				0.19331862032413483,
				0.28632041811943054
			],
			"min":[
				-0.3041377067565918,
				-0.004288428463041782,
				-0.28755632042884827
			],
			"type":"VEC3"
		},
		{
			"bufferView":37,
			"componentType":5126,
			"count":18319,
			"type":"VEC3"
		},
		{
			"bufferView":38,
			"componentType":5126,
			"count":18319,
			"type":"VEC2"
		},
		{
			"bufferView":39,
			"componentType":5123,
			"count":72219,
			"type":"SCALAR"
		},
		{
			"bufferView":40,
			"componentType":5126,
			"count":12452,
			"max":[
				0.40253400802612305,
				0.1848374903202057,
				0.28648510575294495
			],
			"min":[
				-0.29674386978149414,
				-0.003092425176873803,
				-0.2484307587146759
			],
			"type":"VEC3"
		},
		{
			"bufferView":41,
			"componentType":5126,
			"count":12452,
			"type":"VEC3"
		},
		{
			"bufferView":42,
			"componentType":5126,
			"count":12452,
			"type":"VEC2"
		},
		{
			"bufferView":43,
			"componentType":5123,
			"count":48279,
			"type":"SCALAR"
		},
		{
			"bufferView":44,
			"componentType":5126,
			"count":24455,
			"max":[
				0.39643192291259766,
				0.13730952143669128,
				0.21598461270332336
			],
			"min":[
				-0.34889841079711914,
				-0.006342033389955759,
				-0.350056916475296
			],
			"type":"VEC3"
		},
		{
			"bufferView":45,
			"componentType":5126,
			"count":24455,
			"type":"VEC3"
		},
		{
			"bufferView":46,
			"componentType":5126,
			"count":24455,
			"type":"VEC2"
		},
		{
			"bufferView":47,
			"componentType":5123,
			"count":97548,
			"type":"SCALAR"
		},
		{
			"bufferView":48,
			"componentType":5126,
			"count":6928,
			"max":[
				0.5755472183227539,
				0.20792078971862793,
				0.12761282920837402
			],
			"min":[
				-0.14610862731933594,
				-0.006523716263473034,
				-0.3080143928527832
			],
			"type":"VEC3"
		},
		{
			"bufferView":49,
			"componentType":5126,
			"count":6928,
			"type":"VEC3"
		},
		{
			"bufferView":50,
			"componentType":5126,
			"count":6928,
			"type":"VEC2"
		},
		{
			"bufferView":51,
			"componentType":5123,
			"count":27432,
			"type":"SCALAR"
		},
		{
			"bufferView":52,
			"componentType":5126,
			"count":7831,
			"max":[
				0.5135707855224609,
				0.15594790875911713,
				0.2521386444568634
			],
			"min":[
				-0.15256309509277344,
				-0.001334130996838212,
				-0.19668398797512054
			],
			"type":"VEC3"
		},
		{
			"bufferView":53,
			"componentType":5126,
			"count":7831,
			"type":"VEC3"
		},
		{
			"bufferView":54,
			"componentType":5126,
			"count":7831,
			"type":"VEC2"
		},
		{
			"bufferView":55,
			"componentType":5123,
			"count":31320,
			"type":"SCALAR"
		}
	],
	"bufferViews":[
		{
			"buffer":0,
			"byteLength":11131536,
			"byteOffset":0,
			"target":34962
		},
		{
			"buffer":0,
			"byteLength":11131536,
			"byteOffset":11131536,
			"target":34962
		},
		{
			"buffer":0,
			"byteLength":7421024,
			"byteOffset":22263072,
			"target":34962
		},
		{
			"buffer":0,
			"byteLength":6291456,
			"byteOffset":29684096,
			"target":34963
		},
		{
			"buffer":0,
			"byteLength":59568,
			"byteOffset":35975552,
			"target":34962
		},
		{
			"buffer":0,
			"byteLength":59568,
			"byteOffset":36035120,
			"target":34962
		},
		{
			"buffer":0,
			"byteLength":39712,
			"byteOffset":36094688,
			"target":34962
		},
		{
			"buffer":0,
			"byteLength":37500,
			"byteOffset":36134400,
			"target":34963
		},
		{
			"buffer":0,
			"byteLength":130548,
			"byteOffset":36171900,
			"target":34962
		},
		{
			"buffer":0,
			"byteLength":130548,
			"byteOffset":36302448,
			"target":34962
		},
		{
			"buffer":0,
			"byteLength":87032,
			"byteOffset":36432996,
			"target":34962
		},
		{
			"buffer":0,
			"byteLength":86826,
			"byteOffset":36520028,
			"target":34963
		},
		{
			"buffer":0,
			"byteLength":93300,
			"byteOffset":36606856,
			"target":34962
		},
		{
			"buffer":0,
			"byteLength":93300,
			"byteOffset":36700156,
			"target":34962
		},
		{
			"buffer":0,
			"byteLength":62200,
			"byteOffset":36793456,
			"target":34962
		},
		{
			"buffer":0,
			"byteLength":60198,
			"byteOffset":36855656,
			"target":34963
		},
		{
			"buffer":0,
			"byteLength":105240,
			"byteOffset":36915856,
			"target":34962
		},
		{
			"buffer":0,
			"byteLength":105240,
			"byteOffset":37021096,
			"target":34962
		},
		{
			"buffer":0,
			"byteLength":70160,
			"byteOffset":37126336,
			"target":34962
		},
		{
			"buffer":0,
			"byteLength":71430,
			"byteOffset":37196496,
			"target":34963
		},
		{
			"buffer":0,
			"byteLength":52176,
			"byteOffset":37267928,
			"target":34962
		},
		{
			"buffer":0,
			"byteLength":52176,
			"byteOffset":37320104,
			"target":34962
		},
		{
			"buffer":0,
			"byteLength":34784,
			"byteOffset":37372280,
			"target":34962
		},
		{
			"buffer":0,
			"byteLength":31896,
			"byteOffset":37407064,
			"target":34963
		},
		{
			"buffer":0,
			"byteLength":54600,
			"byteOffset":37438960,
			"target":34962
		},
		{
			"buffer":0,
			"byteLength":54600,
			"byteOffset":37493560,
			"target":34962
		},
		{
			"buffer":0,
			"byteLength":36400,
			"byteOffset":37548160,
			"target":34962
		},
		{
			"buffer":0,
			"byteLength":33366,
			"byteOffset":37584560,
			"target":34963
		},
		{
			"buffer":0,
			"byteLength":168204,
			"byteOffset":37617928,
			"target":34962
		},
		{
			"buffer":0,
			"byteLength":168204,
			"byteOffset":37786132,
			"target":34962
		},
		{
			"buffer":0,
			"byteLength":112136,
			"byteOffset":37954336,
			"target":34962
		},
		{
			"buffer":0,
			"byteLength":111324,
			"byteOffset":38066472,
			"target":34963
		},
		{
			"buffer":0,
			"byteLength":161556,
			"byteOffset":38177796,
			"target":34962
		},
		{
			"buffer":0,
			"byteLength":161556,
			"byteOffset":38339352,
			"target":34962
		},
		{
			"buffer":0,
			"byteLength":107704,
			"byteOffset":38500908,
			"target":34962
		},
		{
			"buffer":0,
			"byteLength":109278,
			"byteOffset":38608612,
			"target":34963
		},
		{
			"buffer":0,
			"byteLength":219828,
			"byteOffset":38717892,
			"target":34962
		},
		{
			"buffer":0,
			"byteLength":219828,
			"byteOffset":38937720,
			"target":34962
		},
		{
			"buffer":0,
			"byteLength":146552,
			"byteOffset":39157548,
			"target":34962
		},
		{
			"buffer":0,
			"byteLength":144438,
			"byteOffset":39304100,
			"target":34963
		},
		{
			"buffer":0,
			"byteLength":149424,
			"byteOffset":39448540,
			"target":34962
		},
		{
			"buffer":0,
			"byteLength":149424,
			"byteOffset":39597964,
			"target":34962
		},
		{
			"buffer":0,
			"byteLength":99616,
			"byteOffset":39747388,
			"target":34962
		},
		{
			"buffer":0,
			"byteLength":96558,
			"byteOffset":39847004,
			"target":34963
		},
		{
			"buffer":0,
			"byteLength":293460,
			"byteOffset":39943564,
			"target":34962
		},
		{
			"buffer":0,
			"byteLength":293460,
			"byteOffset":40237024,
			"target":34962
		},
		{
			"buffer":0,
			"byteLength":195640,
			"byteOffset":40530484,
			"target":34962
		},
		{
			"buffer":0,
			"byteLength":195096,
			"byteOffset":40726124,
			"target":34963
		},
		{
			"buffer":0,
			"byteLength":83136,
			"byteOffset":40921220,
			"target":34962
		},
		{
			"buffer":0,
			"byteLength":83136,
			"byteOffset":41004356,
			"target":34962
		},
		{
			"buffer":0,
			"byteLength":55424,
			"byteOffset":41087492,
			"target":34962
		},
		{
			"buffer":0,
			"byteLength":54864,
			"byteOffset":41142916,
			"target":34963
		},
		{
			"buffer":0,
			"byteLength":93972,
			"byteOffset":41197780,
			"target":34962
		},
		{
			"buffer":0,
			"byteLength":93972,
			"byteOffset":41291752,
			"target":34962
		},
		{
			"buffer":0,
			"byteLength":62648,
			"byteOffset":41385724,
			"target":34962
		},
		{
			"buffer":0,
			"byteLength":62640,
			"byteOffset":41448372,
			"target":34963
		}
	],
	"samplers":[
		{
			"magFilter":9729,
			"minFilter":9987
		}
	],
	"buffers":[
		{
			"byteLength":41511012,
			"uri":"untitled.bin"
		}
	]
}
